<svg width="64" height="64" viewBox="0 0 64 64" fill="none" xmlns="http://www.w3.org/2000/svg">
<path d="M26.9317 26.6637C26.9317 24.2146 25.2651 24.2146 25.2651 24.2146H24.3822H18.4091H18.4065V29.4711H24.8398C25.9521 29.4711 26.9317 29.1166 26.9317 26.6637V26.6637Z" fill="#E3E4E6"/>
<path d="M42.8209 29.471C39.1847 29.471 38.6768 33.0982 38.6768 33.0982H46.4133C46.4133 33.1008 46.4609 29.471 42.8209 29.471Z" fill="#E3E4E6"/>
<path d="M25.2652 33.1008H18.4104V39.3987H24.4827C24.5859 39.3987 24.738 39.4039 24.9197 39.3987C25.8955 39.3742 27.7503 39.0958 27.7503 36.3387C27.7503 33.0699 25.2652 33.1008 25.2652 33.1008Z" fill="#E3E4E6"/>
<path d="M32 0C14.3553 0 0 14.3553 0 32C0 49.6434 14.3553 64 32 64C49.6434 64 64 49.6434 64 32C64 14.3553 49.646 0 32 0ZM37.6624 21.4163H47.38V24.3177H37.6624V21.4163ZM32.7489 36.6313C32.7489 43.8199 25.2651 43.5853 25.2651 43.5853H18.4104H18.2093H13.0096V20.0293H18.2093H18.4104H25.2651C28.9915 20.0293 31.9317 22.0878 31.9317 26.3027C31.9317 30.5164 28.338 30.7845 28.338 30.7845C33.075 30.7832 32.7489 36.6313 32.7489 36.6313ZM50.9298 36.2446H38.722C38.722 40.6219 42.8686 40.3461 42.8686 40.3461C46.7819 40.3461 46.6453 37.812 46.6453 37.812H50.7945C50.7945 44.5378 42.7333 44.0751 42.7333 44.0751C33.0621 44.0751 33.6834 35.0716 33.6834 35.0716C33.6834 35.0716 33.6744 26.0205 42.7333 26.0205C52.2665 26.0205 50.9273 36.2446 50.9298 36.2446V36.2446Z" fill="#E3E4E6"/>
</svg>
