<svg width="64" height="64" viewBox="0 0 64 64" fill="none" xmlns="http://www.w3.org/2000/svg">
<path d="M64 32C64 49.6775 49.6517 64 31.9483 64C17.2645 64 4.90323 54.1547 1.10968 40.7227L13.3935 45.7934C14.2194 49.9354 17.8968 53.071 22.2839 53.071C27.3419 53.071 31.5613 48.8902 31.3419 43.5872L42.2451 35.8194C48.9677 35.987 54.6064 30.5419 54.6064 23.7548C54.6064 17.0968 49.1872 11.6903 42.516 11.6903C35.8451 11.6903 30.4259 17.1097 30.4259 23.7548V23.9097L22.7871 34.9677C20.7871 34.8515 18.8258 35.4065 17.1742 36.529L0 29.4323C1.31613 12.9548 15.1097 0 31.9483 0C49.6517 0 64 14.3226 64 32ZM20.0903 48.5549L16.1548 46.9289C16.878 48.4308 18.1267 49.6153 19.6645 50.258C23.1355 51.7032 27.1227 50.0516 28.5677 46.5937C29.2645 44.9162 29.2773 43.071 28.5805 41.3935C27.884 39.7161 26.5806 38.4 24.9032 37.7033C23.2387 37.0066 21.4581 37.0322 19.8839 37.6259L23.9484 39.3032C26.5032 40.3613 27.716 43.2904 26.6451 45.8452C25.5742 48.4129 22.6451 49.6128 20.0903 48.5549ZM42.516 31.7935C38.0773 31.7935 34.4645 28.1806 34.4645 23.7548C34.4645 19.329 38.0773 15.7161 42.516 15.7161C46.9549 15.7161 50.5677 19.329 50.5677 23.7548C50.5677 28.1806 46.9677 31.7935 42.516 31.7935ZM42.5291 29.7808C45.8709 29.7808 48.5805 27.071 48.5805 23.7419C48.5805 20.4 45.8709 17.7032 42.5291 17.7032C39.1872 17.7032 36.4773 20.4129 36.4773 23.7419C36.4904 27.071 39.2 29.7808 42.5291 29.7808Z" fill="#E3E4E6"/>
</svg>
