<svg width="64" height="64" viewBox="0 0 64 64" fill="none" xmlns="http://www.w3.org/2000/svg">
<path d="M32 64C49.6773 64 64 49.6773 64 32C64 14.3227 49.6773 0 32 0C14.3227 0 0 14.3227 0 32C0 49.6773 14.3227 64 32 64ZM14.6427 31.3067L45.496 19.4107C46.928 18.8933 48.1787 19.76 47.7147 21.9253L47.7173 21.9227L42.464 46.672C42.0747 48.4267 41.032 48.8533 39.5733 48.0267L31.5733 42.1307L27.7147 45.848C27.288 46.2747 26.928 46.6347 26.1013 46.6347L26.6693 38.4933L41.496 25.0987C42.1413 24.5307 41.352 24.2107 40.5013 24.776L22.1787 36.312L14.28 33.848C12.5653 33.304 12.528 32.1333 14.6427 31.3067V31.3067Z" fill="#E3E4E6"/>
</svg>
