<svg width="64" height="64" viewBox="0 0 64 64" fill="none" xmlns="http://www.w3.org/2000/svg">
<path d="M32 0C14.3269 0 0 14.3269 0 32C0 49.6731 14.3269 64 32 64C49.6731 64 64 49.6731 64 32C64 14.3269 49.6731 0 32 0ZM49.0453 42.8624H44.9848C44.5451 42.8629 44.1107 42.7643 43.7144 42.5739C43.3179 42.3835 42.9696 42.1061 42.6949 41.7624C41.4773 40.2336 39.0781 37.5227 36.5595 36.3584C36.4136 36.2901 36.2528 36.2597 36.092 36.2699C35.9312 36.2803 35.7757 36.3309 35.6397 36.4171C35.5037 36.5035 35.3915 36.6227 35.3139 36.7637C35.236 36.9048 35.1952 37.0632 35.1949 37.2243V41.2403C35.1949 41.4533 35.1531 41.6643 35.0715 41.8611C34.9901 42.0579 34.8707 42.2368 34.72 42.3875C34.5693 42.5381 34.3907 42.6576 34.1939 42.7389C33.9971 42.8205 33.7861 42.8624 33.5731 42.8624H31.6955C29.2539 42.8624 23.9955 41.376 19.8056 35.2725C16.2356 30.0725 14.6442 26.0426 13.7162 22.7751C13.6623 22.5836 13.6535 22.3822 13.6905 22.1867C13.7274 21.9912 13.8092 21.807 13.9294 21.6484C14.0495 21.4898 14.2048 21.3613 14.383 21.2728C14.5613 21.1843 14.7575 21.1383 14.9565 21.1385H19.0642C19.4741 21.1382 19.8731 21.2701 20.2019 21.5147C20.5307 21.7593 20.7718 22.1035 20.8893 22.4961C21.6531 25.051 23.6316 30.5624 27.1288 33.3069C27.2355 33.3909 27.3637 33.4432 27.4987 33.4579C27.6336 33.4725 27.7701 33.4491 27.8923 33.3899C28.0144 33.3307 28.1173 33.2381 28.1896 33.1232C28.2619 33.0083 28.3 32.8752 28.3003 32.7395V26.3061C28.3003 25.0347 27.7493 23.7627 26.8893 22.7686C26.7653 22.6261 26.6851 22.4508 26.6579 22.2639C26.6308 22.0769 26.6581 21.8861 26.7365 21.7142C26.8147 21.5423 26.9408 21.3966 27.0997 21.2944C27.2587 21.1922 27.4435 21.1379 27.6325 21.1379H33.9659C34.292 21.1379 34.6045 21.2674 34.8352 21.498C35.0659 21.7286 35.1955 22.0414 35.1955 22.3675V31.0331C35.1955 31.1587 35.2301 31.2816 35.2955 31.3888C35.3605 31.4957 35.4541 31.5829 35.5656 31.6405C35.6771 31.6979 35.8021 31.7237 35.9275 31.7149C36.0525 31.7059 36.1728 31.6629 36.2749 31.5901C37.4376 30.7627 38.4331 29.54 39.3488 28.1661C40.5013 26.4375 41.9077 23.5802 42.6133 22.0974C42.7499 21.8101 42.9651 21.5674 43.2339 21.3975C43.5029 21.2277 43.8144 21.1375 44.1325 21.1375H48.6125C48.7995 21.1374 48.9835 21.1851 49.1469 21.2761C49.3104 21.367 49.448 21.4982 49.5467 21.6572C49.6451 21.8162 49.7016 21.9977 49.7101 22.1846C49.7189 22.3715 49.68 22.5575 49.5965 22.725C48.4661 24.9925 46.2643 29.1523 44.1923 31.5928C43.8957 31.9437 43.7504 32.3981 43.7885 32.856C43.8264 33.3139 44.0448 33.7381 44.3952 34.0352C45.7459 35.1893 47.8541 37.3227 50.1275 40.8763C50.2528 41.0709 50.3235 41.2955 50.332 41.5269C50.3408 41.7581 50.2867 41.9875 50.176 42.1907C50.0653 42.3939 49.9019 42.5635 49.7029 42.6819C49.504 42.8 49.2768 42.8624 49.0453 42.8624Z" fill="#E3E4E6"/>
</svg>
